<mxfile>
    <diagram id="AnUbSncHfQu72hFkI0Lv" name="第 1 页">
        <mxGraphModel dx="1431" dy="317" grid="1" gridSize="10" guides="1" tooltips="1" connect="1" arrows="1" fold="1" page="1" pageScale="1" pageWidth="827" pageHeight="1169" math="0" shadow="0">
            <root>
                <mxCell id="0"/>
                <mxCell id="1" parent="0"/>
                <mxCell id="21" value="" style="rounded=1;whiteSpace=wrap;html=1;fontSize=13;fontColor=#6666FF;dashed=1;" vertex="1" parent="1">
                    <mxGeometry x="610" y="255" width="400" height="235" as="geometry"/>
                </mxCell>
                <mxCell id="2" value="Part" style="text;html=1;resizable=0;autosize=1;align=center;verticalAlign=middle;points=[];fillColor=#e51400;strokeColor=#B20000;rounded=0;fontColor=#ffffff;" vertex="1" parent="1">
                    <mxGeometry x="610" y="230" width="40" height="20" as="geometry"/>
                </mxCell>
                <mxCell id="6" value="" style="group" vertex="1" connectable="0" parent="1">
                    <mxGeometry x="650" y="260" width="333" height="115.05000000000001" as="geometry"/>
                </mxCell>
                <mxCell id="3" value="tpl_ejsyaml\mvc_gti\el_table\Basic\part.ejs" style="text;whiteSpace=wrap;html=1;fillColor=#6d8764;strokeColor=#3A5431;fontColor=#ffffff;" vertex="1" parent="6">
                    <mxGeometry x="20" y="20" width="250" height="30" as="geometry"/>
                </mxCell>
                <mxCell id="4" value="" style="shape=image;verticalLabelPosition=bottom;labelBackgroundColor=#ffffff;verticalAlign=top;aspect=fixed;imageAspect=0;image=data:image/png,iVBORw0KGgoAAAANSUhEUgAAAjMAAAB1CAYAAAC7zGCaAAAgAElEQVR4Ae1dva4dxbI+74HORCARHDk7TsjIkI7EA2BZBnSEdKIjIhABwluyLEFCjM0OLC6Sxb0XcwOcH2SxAyOCFaH1EDyB+6p/qru6urqn52etvWbtL9iavWZ6uqurvq76urpn5i/DMBj8QQfAADAADAADwAAwsFUM/GWrgkNuDDpgABgABoABYAAYsBgAmUFmCpm5a8TAX//6V4M/6AAYAAaAgWUYAJm5xkCGGQVmFMAAMAAMAAPAwHIMgMyAzCAzAwwAA8AAMAAMbBoDIDMA8KYBjBnN8hkNdAgdAgPAwNYxMI/MXDwzu93O/T27AAi2DgLIDwwDA8AAMAAMbBkD08nMvUtztdsZkBgAf8vAh+zALzAADAAD54OByWTm7uMrs3txae5ieQbLM8AAMAAMAAPAADBwAhgAmTkBI2B2cD6zA9gStgQGgAFg4PgYAJkBmcGsAhgABoABYAAY2DQGQGYA4E0DGDOg48+AoHPoHBgABk4NAxPJzF1z+WJnrh7fRQAECQIGgAFgABgABoCBk8BAJ5nxJGa3uzKX98BIT42RQh5gEhgABoABYOAmY6CTzBBIAqn56f5JMLGbbDj0nTCJI7AADAADwMBNx8BEMjMYPJqNQXPTBw36jzEADAADwMBpYQBkBuudyLIBA8AAMAAMAAObxgDIDAC8aQBjdnRasyPYA/YABoCB68AAyAzIDMgMMAAMAAPAADCwaQxMJjND+Mgkvs0E9n0d7BttAnfAADAADAADEgPTycwQNgHjq9mbZrESCPgN5wAMAAPAADCwVQzMIjNb7SzkxkAFBoABYAAYAAbODwMgM1gnRYYJGAAGgAFgABjYNAZAZgDgTQMYM6zzm2HBprApMAAMTMUAyAzIDMgMMAAMAAPAADCwaQx0kZl///vf5tatW5vu6FSWh/KYGQADwAAwAAwAA9vAAMgM2DhIKjAADAADwAAwsGkMgMwAwJsGMGZN25g1wU6wEzAADBwSAyAzIDMgM8AAMAAMAAPAwKYxADLTDeC75vLFzuzCywJ3uytzee8UmfZ982y3M1eP764PzPD258V9j/XszO6n+0zOA8ru7PyB+Xn/1Oz3j813Hx7Qdg+/NHvXjm3rqdk//4D1cWm7vg+/P3l7WZ33Ls1VFcN/M99cfGJ++/o983n3+FjaL3//nXv/Mr9dvGPuTGqX5LUy279/mW/+vo48s2eS/3ivQ44TlFvo3dnD6vTjt+bj7e/vmP8srUPINWoX5mOu9W31nXLc/+lAPrvQm/exPo49M/fZdSvD7sWlucvONfUc+3YasXC7ZKbmjN35nckArJ3rNZhWzhlxuQEdeCI5WgvMhyYE6Q3QmY41PannvHzuXmEXp4+M3KwdkI5EZmK/3zbfvTxFMjOGEQqyxyYzb5kfvv7E/PCPBXbvIhEj9Yfge1Q51pA74m6kfxPKbZLMCL9SBOSHf5hH+1fp7+Uv5vYEnRT19dw7FjOCzAeZhDL5ko8Nk3Pyt06+nNz09vPu4ys3yZ8XD9bDKsgMM3Sv8fz3qZaQmcCOBQu2oFgOiLFAtR54uvXFdewGLemOEZuxwc7r2Mz/p0hmhBNTdXlNZMYF9IUEag1SADIzPwuj4enImRkXXIVvJV91+8mf5tH+T/MRz8x++Iv56vn36/a50IMfd02ycnAfmMuQiM2Jx4xCl3oMA5npVBQNBndcCDqfkZnHgjM5VNlPD5i5c2EEJhKbfJCN91EH8+ndd3pkxs+ixrH3+cefzFjuWWIXT6D+c+9vy4IKyMwy/ak+ZYld7b0+47bYtp2y5f6Gy35hPnr5yjw6OHHhbdL/fT7OxYYKEVvDvyUCk+RR9TWW3eq0xRoy99Zx1mTGO26+z4X/Tw6dgqs/2rVEmx3xhKOy9LOIzEwhG0kmv8ZJGQ0aIP5Isqb9PKXcskwtA0Q6a84guoHsB4zcY0NtWHltO+pg6m4j14UOfFpeCntY9l+aB7L+Dz81v7u9NIGA0J4Xdb+LKKPV5+pvkBm3r0bs3XEyPDU/P8z79OA5yZ2OxZ6Zrn06yYHpesrbPWoZN3uv7XWhTFHHnpgFZCYuqbh9N9QWHUXGyLVD1+xRu27P+UDu9/J8YqoBfUxu2d7sPSxjuszlbcld6qtmv+Piqu5PApkZXVb63ny2f2U+ezgYn8mhJak/zLuF3/jFfMWXrKpEqXPsjZIIigkUvybqNtTvYoUlTXFCWdZDfnqdWFDWv7Z/OWsyE5XVBAiBwxMFG/SvXlylILtTQLOEzDRlYQYP5TiQCFyJiASykDF5SZZCGVobtYOxIQO1wduNepQDufmb9Kroj9/nZNFJ2rx2mQ55O+H/9588NnuNfAQiYTfsRjIRCEL87eoIxOjlp+b9WP8H5ucW6dGudZGZQIZkW/unhpOZsk8VEtWw+yF0PaXOeiZImdW3An/rWrRXGyPD2DKTvZ6RiUAQ+MblSD5YgG/J1rjmSQMnS6G9TIaRPrm+T9Rl7R57viHvFLsfomydzAxmYPtlLFnR2/dkxu2ricRHyeqEur56cpHqefiHI0FlvZ1kZhgr1+lXu7A+1tZg/JaKiRuDu9qu6X7++Y2TGZ5pyf9PAb8dvIchgCMEe5/B8AHYB3YlGB+BzDg5MpJijSyIiSqHIDOuTNkHVz8nOGsC0LUpn1TSQNoxmNaUaxhMGfiDXGpWpHxyyGdJlMyOKmeFVNiyPWRGKzNImfzvnHBR/ULOChZKx6vZ6pDnfJDVNty6QM5JgtOzD+ZqlmONIDtGZhRbF4RDlWOO3BXduPo5wRm3z2Rdun4qBGgYTNFfRSfXg6sen8LIis2qFNmUcF2cf/f5K/Mokhu9TKvP1XgidKf7/nH7ttrWrjVJXybTmgRq/X5Q3zZOZpQZvTb71M5FY+XBnwOpCj6VRHQaqSkL1VEfkByA/H8yKJEzyqz4PuRELy5HFWSJ2p9/pPao/SRXWacva4kWDRYrJyde/Dz1gV8v62y1Z68tIzMNchLxxGVqlNeIiiBUTtYsK2PrFmSGZZSyx8GVR9CTvrmM1/9/KzC6jI267FN5XFglERP72EFmdLkYuajI4e7TMiqV8pQlouWe/MiyPir+8n7rMoelMk0mV6dOZmgfjJdnmhxjY3Te9TDRq75uINcFtRGXkSJJseU8UckyLlK/dtNwWIqiurqOwf+3HoHmMairTilbz28Wh1x74anaLAmQ1UP6FU8KZ2V0HR+sD6JtkJkQSCn4ciBVnf8SMiPa0w29NplZRgB0GRvA7cnMyMHkskT1fk+WQQCd7j9XMlNkZrT+n2RmppGtGAbjAnCRmWlgr0YKNH3Uzo2QGU8K8gBeEDJVjsbykFp+MERmtKwVYbr3OFmXTj81MkM2CH0KhHMNOXv7o5cLQXdK1jksF6Vlp8OQGR5bdNm9Tl25KfLXcFw9z3TEfIKLd+oElyaVR44jVfkJe/kRZEaQCw64w5AZ2lzcBgaXIwGfgXCg972IegJJIHK2/DHyHDBJlrHz7QGQBmxOYNL5sfrnXV9GZgbjlpmKbElNlhUyM3J/T8jEpD0zIlPTcgCMQPbbsda3lc474pATAy5bQRJa/bPXaqRg7D5+vUlmdEJSyKnK0SAGanmr48Y9XOaO/wsZO+7pb1/XC7flsf6vB+UKZueQmZ7sTabf3M/VddFbrtKXrM1KmRqBYeejfMFntDJJsWxP2wcsczPIDC1jqGzXB10K/pxEHIrM0AZcCRDbXkzzOWDlTyV5edjSmiQuBLzsDcCBAGXLNxWQR4KUtzsfrNQ2k9mCWQyaRGAOP5CXkpmBlnWyTb0zNgCLJaVYL9+ALIkLta1uAGYbl6sOI9hDHQd1TOj290HWLjO0ZuNxaaOyjOGuV675dkM7vdmZKimY0r/QZkUumeHwJEE80aTI4XXBlqK4nZTypHeqv6VnWVZ/i/JEXTr5/D3q/iQu/1LSFX2XmJxlbfTZsE5mvjefZctJtj7tCaeOzMyQnnRKGR2/wTj7HeXv9G1BDzEOxPup7zRJFD61KEfl5dHfH+tnvljqzceblWLBivYlrMvjDSEzaRNw3C8Sg3svmSEQ0d4NdpwVHCjQp3qIUEUjRQBQGWWgB9Lj+2Wva4OmbMuWj4BmA2FVAId6s0GiDVbeTzXNKQfkxN+MBMh9JTHDIcmFk72W9fDnU135RltPmNJj1Klc/ih2Xs7W4evNlozc3hqqy5bx2Z4od9BxXlconxEurzNv37mOkOk9ZC/aZIYtQajEwAfK8SAdgnC2d4Znc7TrY3tBWF8Y/uPYY/3z+0I4CRHtWaLlyAgrU9yvvbdH1MP7J/RFhMbLUu9bJI9V8qe1yXUp9eLLSzIT22EyyzJRl5p+i3PJvxZ+sCgrZcx/Z/5G3hv2umRvABYbfbv2zFC97OkoV2dRF8mm+WW6lo58Mq3rL/ny6XoK92bxKtWXvUJD89PU51nH9eyr62Uw2yUzsxSaQFNTCM5DR+eNAc2hXY/N5y17XI+s542Jlk49mRknnK06+q7RREqbZE3Rf5PMXFvc8OOuSUDcxLRjohEmsM26rq2fdVuvZd8aFkBmTtDoNWPhfH2gQDcTdEOZsGyGNuH+VcaMz9osm80fW+bzb88STE5cjkc4w8x9jcxsCPZLSdGqPmUs0xGujxMUyqQoWfpVxuWhML6ifSv9BJmpKGYykClAsA9HpiUtWibqYN1ryYN60ousoItSFw6vNwSP2pIPWx7xSzetpZZDOfhTrJctDTodsaWzA40jt7Ri/eaK5JqyALXl9Mn+fW7f2TaAFlGxOmhdt/JGPa1B+Ob2Z8Z9Ue4V7avZD2RmhnE0ReLcKTpmyARcAgPAADBwEzAAMgMyU87aoRPoBBgABoABYGBDGACZ2ZCxbgK7Rh8xiwQGgAFgABiYigGQGZAZzD6AAWAAGAAGgIFNY6CbzNy+fdu8+eab+IMOgIETwcDDhw9Nzx/G7Xp+63/+97+N/YNO19PpsXTZM1ZsmWPJg3bWxRDIzIkEJgB7XWDfBH1ax/v6rdebf3DO6+IKZGZdfR5znGK8bNd2PTiZRGamrmGhPNY9gYHDYcA659feeK35Z8vABuvZgMgMdLqeTo+lS4yX7dlsCjZAZrBOimC3UQzAOR/fOYPMHF/nUwJaqyzGy3Zt17IrXQOZ2WggIwOudUwvmVr2ZslUj3gJ1NgbMJfagb5h1P1F63kDW34DSX4jaZE91O9D1eWsOucHP5rd7kfzxRuvuT01mUz0Ajnx7Z+szFJbnPH9hyQz8ftLS2xzHfZlL4a71rfujshB4+WL/9uZXy/vqBlNW2a9sZC+R7SL3wL049m9SG7Sy+9SXWMv11tP/rrvOcU2NkpmgmErbxT0AXVZUJ5lLPUtwEvesnr87+j4tzXOlJm/VdY5Fqqn47skSwPgkchMwkXtI5QLHMAaZOaf35pfdzvz4wO//FQ450qw84G09hZc/WODSRcL+jxid+2Dhr8tCfaNr1P39AdkRth6bJIiP8RYfLVa1DeChx4bDZnvSfUTmXktjBGN0BTjZYE8zpe6GCX8uJNvZnyiGFOJfV36WdCnU65/o2SGXu2sAUIA55iG48Gc2g2zhXls+hr7QvJPOfJBynRxbeRyiuyTy54imfnC/LjLZ52Fc66QmSGcV7+VtJAALHGAjsxk5IVetz/zNfsL+3JIMrNET/Hemn0n4zuRgFi3Uocb25UMw+0nf5pH+z/NRx+yuuxXq6tflmbllLZacuTX9MlTJDN2n5nLXv5qvv1nvuesGC+z5chlSMTGT8TnxYO19HOe9WyWzHj2vTNFWnNspjAbnB0AYAGcDy4fzClL0VFPlPHUyUw+YAfe/0hs/OAt7BT7OEUfp1T29MiMTZ/vXnxr7rBNwaVzrmVZAkm4eMfcEbZxhEI5zzF+qP9LMmMx4PswK0Nz7mQm6EYlpcKua9isTmYuzEcvX5lHBycumk8Qfin0OyMzb7xm+saLVn/fuURgkjyqvq4zZh0AE2vgak4d2yUzg77U5IlDytg4QImZgyzjFReIQ/xQ5AzywYM5B0kAa8bGQ8YmfYwyyexJAX2csjzmxEDKLfaqRDmo3Ix+xTrYIA592gndOn0HHVo504Bm92r1zT1Hy0v7p2Zv/55/UK55uzJfmgeDJyCu3P6pUfe7hKUeKqPW52Stk5kHz5+avdi74/faWBm4Ht42370McpP8+6fm54e8zGBcfcr13Dn7rAwtL9FTTiWZyevmTkNfahLkJ8z8+ZeViVwUAdQRh0+M/5DjJ2YO+dDJzGDc+a95doYyNqk9Lo8vn65FmezHFCVRk3KzdqZlZqRMchkvkDLx0UsuN9kn7qeJZWVddbtSHYc4qsHZYTyQmdFlpe/NZ/tX5rOHg/GZnFfm0d7+/WHezcbKYAab1XHXQpkqUUrkgfc5Hy+vGVpu4mMmHy8hxoj9LrzO5v/kI60/tH6yFh+GwfiYVPPd12PbZt+kbU7g94bJjLbUFAI2W0/sIzNK6s+RjYmBvwpWQbxsOSbjMAS5BTGI57OyObDv/yRkDCQpJzz2nhXJDBGxhlxuILhyjKQdFPCBGFTJjCUNj813IeXtyUX67eQNxCgjOQ+/LMiFH+RLyUwgVlzeYs+M0idWJnPOa6TNtaUmmcnoJDM++CpkI1syyrGsOc8amZHE6/OPRXAPhCQnXYMZZH8kJm3/MhnzjFU/mREk0LYz1nYtqzJ637geNd2uca5OZgYzsP0ylqzo7Xky4whMJD5KVifU9dWTi1TPwz8cCSrr7SQzb9wx375oLcsuJDMZtnSZMtnJrxZxoKY7nOf62zSZKZaaAhPmgbyHzOgDsgN8GVgHky2zZNcEmcmueUB6Zi4DfyAgY6Qhq08hZtn1ZQOAMi9cxxxQ6X8vx3i5ZfKk9pTAT/12JEUQF0YKfB0KuaD71eMyMqNmaqRMMaOU68hlap5/4J5UogzMnctfiyUmey2faeb1JN3R+Txw2+uOTPDMRReZ8YFcJxKc4FC79WMvmSn7opAJa8cZxIATs14y4+7henMY8vrVMi9efl1m3n7Zz7ruDl+2x0cysmKzKkU2JVwX5999/so8iuRGL9Pqn+ZPM/IflmLlUtO08dKvez3GaPevSaC0+s/33LbJjFhq0gDcQ2YoQKclH7a0M4VIjGRm+DKT3uYMMhMInJSdt9Ua9P3XArHaiUyQGuhD1iymVoM++YyDZiFxWW9ndlN0XbS7kMxIIlHUL53AMjJDhCTTv5BBPgYel77sktPLT81/sZfmSadMJGeqc84zHkpw7SEzoUy2lDNzeaRNZhgxqrRZEIcOMuPajPLS0pRvq5fM6HWEurLMD8eVom+HQ3/e61NkoEZxyutf6/9pvoAwHpeRIkmx8niikmVcZJ/C8lI9u1PpF/nG4HeujcywSTb3+/WJHulX2RMqdYPfMVO3cTLDgiYto4iA2E1meKCdC5AamWFgtgPbAzonBRoRi0tDok/kHOLemuz6CWRmHFGx/eMzt0Nnas6VzMh9Nslxc+e8TmZmMPRUk8uqaIF/ApkpMjMzxlWNzLjzlPkgIpORhAox0PrE5PIkJCcMPDMyicyQfKz+OHbVcxWZY9l8D84a+m3Lk7CmlwtBN/M/I/eE5aJETA5DZjS/z8cLkX03Cfi/L+I7Z6aSf10vXAdMR2zZvZ6pQWZmXKdcv+n/zZOZ+E6Bi0tztSuZrAZqSRzk77nKrC0zefJCWRcG7uikaAMYlSED6WWjfJE0UHl7PCyZcW1TVkV1Yl5mnxniBIaf5/Ku9f9CMhM2B2f7ZZh9os7juRUyM2KT8BD27MQNwNryWGx/yJaZ1nvUNATMj98ql5hs2z1kprb3g8le6lPHgUpmggwx66ISlAoxUMtS26nvXL45ZIbfw+tq/1+RudCbLme7burjusd6UK60M4fM9GRvMh3pvqYkM2N7Zip9yNoaKVMjMOx8tJvIJMXzU9q7wWW3T2ZoqcktV0gyUJIET1zssgcvG9jw0uyMkpnxRCYnWZJg6TL5QZITITFwRMaHiIxdciqXmQIx6lwmGh1IlYGXOzfuVDixEf1YZQAuJTODoWWdSCasXDM2AMv9MFTvfs+yLCpx8U82pfZDn/h9TFe5cy7fMTN9z4y3iw/EfkkkEobYrgy4/rddAuFlqY6l2YOCzFAWhmc9CoKly+QwLYlQ7Jfve5bxGQZD/fgtPNHEMzPxGpcl1hdkUK/V8C91u7Rc5X4au5kPrJSN/dGv5+Odl/nefJYtJ9lr2hNOHZmZIT3plDI6foNx9jvKyv1OkikfL1OeZsqz6KO+McohfB4jMFJvFANKv53k72/3Zt5zBmSGlm1qey4oiId9GzabwECVABIIDd/DMTXwRyfB9tyoBEm0ZcuoMllQCvlF9okGAe2ZeXahD+RUz9yBqQ0Q0Zbrg6jfnWO6jwNdq2/6uUQU5CPObMOvluEQ+1MiDgLJiPtT+NNGQ/mYdCyXEQ4iIUEmW4erl5GZIZEnV4fL0vhsTyIzVh+irvCIti0jnbNLmYfPGFAa3ZaJfevVPRGGr/PllliPy27QXhJbxmcKOJmxZWOw5/tPsqWgcXv7ZR9qyx81giTb+uEfukyuD5n88tHsRITcHhVLRlz5cs9MlK1KWERdTg8VnTrb6GQmtsP0KHUdbdNl4+R/lgZPGZQzOeSj1I0NwM09M9Qn9nSUe/pJbBpObQu/FO5Xx0vzvUzJ907XU7g3y16n+nY8thST0vFxkfqKsqSLsyAz1BkcAeybhAHpnF97o8zOzCIzFDxwLIggz8ysjzVPZjSytnZbNAmqb0Lt8yVNMnNt+OkgM72vMgiTselkpk9/a9v1JtcHMnNtAw5gv8kDb42+l2SGXtOe3p0BMrPuOFuTzNhsEicuPrvEntA6mG8KmRk1azxRXyHYLyVFa4yHWEcl0xHHS/e3mSiTwrckTNTPwWwIOaK9g45BZjrARrMYWspRj2s4hg5ZpAHx++YO6uic2ecL3PJS66vZJ4ExbfklX0qySzw80J8KztckM8MQNvLG5aPDExnaw7fsNQj5mOP+8VpJDVvS1jIpNF7scqz2kUm+xyzqCX69yE6eyliUcoDMnIRzz52DNBJ+Qz8aBsg50/4Y7WjLaPfi3DxMrUtm5skA283TG8bLPL1tBW8gMyAzCHYbxQCc8/GdM8jM8XW+VjDFeNmu7XowMInMvPnmmwZ/0AEwcBoYsM759VuvN/9sGdhrPXsRmYFO19PpsXSJ8bI9m03BBsgMCBqC3UYxYJ1zz98Uh4CybYcPMtPWzynjp2es2DKn3AfIVsdfN5m5desWliM2uhzRk6JDmfNOwcK+sC8wAAycMwZAZkBQQFKBAWAAGAAGgIFNYwBkBgDeNIDPeaaBvmEmDQwAA8BAHwZAZkBmQGaAAWAAGAAGgIFNYwBkZssArrzpci0mLz+IuVa96TtRte9p9THxrB7+rZOh/MDoerJ72eI3ocS3m9ZtR36XiX1vagXcyg9izpXd4ST7Bg2zX/gO0rJvCbH6Vuj33H6ufl/xgcx1+3m8Nwr3yE0vSmx9m2q8Hv+dqmV1TLMjvQV4Z3bX+gK9TjlcTDjGG4uZPIt9L6ur5kc6xv1GyUx4HXel4/6NlMcwqBh8gVzIt2vS2ySnvx0zGLnSz2GzZIb0tuy16vy7MBnxcnoRH7zsGAxTnNxxyAzpyX+9e78/PTIzOtZUMhPefFv7QKO755gBK+iZPrApPoZJH3qc/kbi0E9RX8QZyMzkTMCxyUzmVwofEr4Cbj+gGf70r3izcVzUMfXaSEwY6MPLh41/h/G9y+LBRslMy2Djxo7OZDGwBBCJzOw4kIKBxNeu+2QY6cvmyYzQ30R78IxAGlwjOpvYRp+dlvWjqw3ty98L+7I4M+NeHz9CGlUyQ1/U1gmLC1g1orOwz01dE5n5mn9WgDIKcz6vADLT1PcMWx6XzHjfrU9CvzefKV8Bf/f5n+ajDw/sD9y44zFGtnd4H3iKvnezZGaofeDswAG+OTitTC8uzeVPOxMHwMUzc/X4vrl8wc51D+IRUB64r+1ZiRxAx/idO5dEYAK5tRms0YF+DDkP0MbJkRlvC+0bONkYqWUfwvly+cmTh/L8AXQqx6ElXhfvmG8+ZsTlH++Z/9x7y3xzwc7J+6q/QWYyLFT11G/b4y6d5f4m68vDP8yj/RGIi6azHh934NjQ73tHYpjWv5nntktmBg80uaTjlMwyI1pAlmU8SIPSdzvjPyQ5MuPUFB7IzF17dEtDtk5bj687c/wBbPGjlXw9Vl6LMnnZIlFy5VL9VFfWjpNT9q1CrNwgof6HI5fL1qWUifJkOgn2YbbInEFWtsOZUbvZkhu1YWW1M5WG85naXqV8XF7aPzX7/VPz+5O3i1T5g+dPzd7upXEExJerLhFlZfT6nN6qZCbsqxF7d5wMLz817/N+fPip+T3IbWX3f1+aB7zM0LlPx9mjNTscs2llqUkuMcnfVtYKQaLlIPuRylkfqgxk5o49uqUhK6PNHnlZM4IVszjhA5k8kySvxQ9JCrlcuVQ/yZ21E2zjgzj7GKe2dKW2y7NM1iYp00Tt+b6O2Uu57mxTl6mQ2elByrOyTBmWFZknXW/4E0dmXpmxZaXbT/40j17+Ym4PIZMTlqO+enJR+I13n6flqiZR6hx7WuzjPtjHwZ0p40WP3ib4XopnMpZMssW4TBsmM9pSUwjaLOBpBi3JjDdMZlQHmImExt7jDGbre2buWyO634LMKHVrcsYNrqw/HIy0Z8aSmEgoXN3st0b6QhneX6+TvL+FTAGUsa0mGAnsSwKeB3DvoHPy1nTVlHV8oGR6d3V9YH5ukRlLFiKZCAQh/vbtETH6+WFq//0nX5rvtDT1UjITSFPe1mOz33Myo/Sp0m6BjRn69cEuX2oqlpi6yIySAQmBfdI+FyIzLuC/Zz63dTiSIsiMIlMhtx6Tz9oAAAolSURBVNOHIhfXEyMfUc5AEOLvYTCepHESEAgJJ1DKfWUWY0QeLtvI/3PqLu+xuF9PpnKMpnE175r3Ybq/Y/tlHFnR23JkRu6nKbI6VNcf5t2o9wvz0XNLgpR6nf/u8Ksj5Xr9ao/uxn0vxYM8xvTU3Vtm02SGsgQRbEqw1ZyuJDPud8EaBQHRQCXO8Xpsu89+sktMdw2RkvJ/BlQnuzR0Sc4ywyr9HQJ5IaIi+0r353rxQKN79DKUlZEysj4IfVA984+h/2K3vFrfyMBV71kkrxL4Q31aVqTYnxKyJFpmR5W1QioGyqQ0MzN69kbK5H4LwkX153JOHxtqn0IwT5kIZYlJIQ5FZsaV4cHeY9KRAC2DUbG7C7aBINh7f/jYLjH9LQbc8n+GfdeXnJiNBurQf05cKHMSdaKWGcyQ6UUnBCV5UPRb0YVqr1jW15PLTTKVdqC6Snms/taSidkiyrnwXIdP4WRFy6b462I56sNfzFf7lNVRyzT7oPtr0nM8qvFhoU40uTr0RDK5uMMn31p9M89tm8yIrIMWuPOg7Q0py5GCaZkmO06Y6XMy47MmFPg5KSGGKpZzwlJSJGbOoPw+BYQqWHOgu75pfeAAVIlUyHxlJI/IhZc9l1WRbyYoPfBJTx0zEEbgvG29fJyc8fNkX36dBlv/cSGZqZKTih6r5XWikhMqLyvPyth+SjLj7onLT7QMFY4ZWcox1q8z2bcQhCnDkAXoUFY7JwK8D5JsuYMv61DdHVjkZMYTJiInnCz44BuXaHhbX8t9Nfw+2ffacpkI7hWiRiTAEwqdXGjkIdPVBKKX2TjoX9cB6azsryaPrXcVmTrsm/WhVd75xqmvjUjLSHzpyRMVnnEp9eKWlxrZnZrcFLeqfliND2X7tfr7zidfwH1sy7fGclpcatll5NrGyQwPuHrg7yYzWdCeZ3BnpEo9iVQk44+DRe9TvE8Fa15/alf0aRaZSXXQQLLEoAXcKOsIEPVyRJ6IFKb2efloY07KeP9mta23ldo9UzJTZGY0PXi7rGF3HuDUpZpuMlPPCCSbaX1J55wsFfKTsjyCbDSxdXpkJurC6TUQwEqfY1nZR0Emq+XEfdzW6j1LZBJtqfVPLeN8SNv35O2E5SJGTA5CZlS/n3AcZeL+cGrfO8tP9b0UN6oErLPd2EdWfvNkxi81XZnLi0tzpaSvorJZpz0zTDN++VtTVM8511aFbaZrIwSFyUnLU3KTc5RFBXVOZmp9y/Si1hPkrJAzkiGrJ5NdGVwzr/s+VEgTH7CcwPDzM9ulPurHhWQmLDPJbIneVus9M/2ZmXypaDA+E5P2zMhMTVUWepfFCDZa98drMTBWSEIHmcmXXObjLhGWso50bYSgZFgbKRv7ztsTelDL0JIOZUHEPUEGJ3P2mDlvJ/yv6Tfrg3LPzKWhUTJD7c6SSZNz6TnvS/sD7zwy00N44nixOuJ+jnSmHXvLaff2nOM+lrfFz8d6+iamWT/jvX123D6ZoaUmt0yTCAopRQZzCoz+6RdSkgft0jc8JsJC9aZjds0ZvhKchQHdfbUnghxo+GZf215OZuImYU6yQvtpkEriQsAbe+tlKMfrjvIHndZkj+WSjshm6jHInBM7337MEPBBxAfX1La6yi8kMwORifxFeNM3AId6WEYlLhcV5xJxiWWUDcBp43LDNk6/U2attbpCwHfLNRScWVkZzMNvu8SR9mxQHcuyM4mwsPYDFrJrIYMQ97U08NIkFLJvrh5JTLS++TL8KSTZjv9tMy9tndQJRmgj03PSi7+P2yBdU8dvXE5qy2Pvrcs03oa93/vMPv9ak9Wfr5MZS0D4cpIrrzzh1EdUwhIVy+gMw/INwE4PjQlHjIWq/x7T9QTfG+LU0vjattVgzoDMJPDmgY6MwQKzJTzWcGqgo+DL97JMc9YZYREOrgAWBWf+2LUKPCE/zz71kBknh+yb1q+8jCU6DuxMpgh+LnN1IFB9JcEcA2X9uq+TSFihU+bI7PIXlavXRxjpPyYSIPaUMFLgyjAiYduvZT38+VRXnj3xhCk9Rp3KuUe/I8bycrYOV28mQ8jghD0xrh23DycRHK+nvC7fdk64fLlg36r9+3VKgdG+4+VO7FO6P16Pj/b6QJvIjC1LQT/fO5OXSXVqmMgIi5DDXePyBUKT7Rvh1+P9pVxRpi4y42VO5MT3ryRSeTvuupORkQdGBJPc7HqUOe3nyUljrr/cLkHvjX04KkmZIhOXr/F/8lNLfU/ubyRm8kep7WPVYqPvMJg+MmP1Sk800ePZZV2xfTV+5bahSWzTB8YYNF1P/b43xK8V/ETsf8X2Z0FmxjqJ6wLoFTBAT9DTJAw4Z6gRY+hxkh5vyHh0ZEYlfGvjJRBtNhGbZ482mZlX5wp9HSUzvQSCJsrTycy19b0xVkBmGso5RYNBphWcAWxevLBrLq7cDK3n0XnofDWdz7XVce97y/yQERe5fHa4cUyZmWZWoguPIdgvJkXr9lXLinDb+jHZQVBCZiYu03fpZN2+cLmX/g8y02FAGhz0SK96PDHALwUG7j/dQXtqtnHO8whp5Nn9Vpcy8uWo375W9ut0+IbZMt2EusVSXLk0tvIYo70Zq5LrkOWxS+vX6uMpi2K3QTSIitNB47rFXdTTYZbir2tMgMzcBKeCPt6wWfHKQQL4AX6AAWDgxDEAMnPiBroulot2QQiAAWAAGAAGtoIBkBmQGcw4gAFgABgABoCBTWMAZAYA3jSAtzJrgJyY4QIDwAAwcDgMdJEZGOBwBoBuoVtgABgABoABYGAZBkBmkJlBZgYYAAaAAWAAGNg0BkBmAOBNAxizmWWzGegP+gMGgIFzwADIDMgMyAwwAAwAA8AAMLBpDPSTmfgdh/N60c45MFL0ATMrYAAYAAaAgZuMgX4yQ6wV32PZNHu9yWBH3+HsgQFgABg4TwxMJzODf63yuXzPAcA+T2DDrrArMAAMAAM3BwMgM5RxwhEZJ2AAGAAGgAFgYJMYAJkBcDcJXMy4bs6MC7aGrYEBYGAMAyAzIDMgM8AAMAAMAAPAwKYxMIPMDObu46v2Z8gBik2DYowB4zpmScAAMAAMAAOnhIFZZMZ14N6ludrtzO7FpbkL8gLyAgwAA8AAMAAMAAPXhIFZZOb+TyAxp8RIIQtmSMAAMAAMAAM3GQMzyAwezb7JgEHf4TCBAWAAGAAGTg0DIDPXlBI7NSBAHjgnYAAYAAaAga1iAGQGZAZrvMAAMAAMAAPAwKYxADIDAG8awFudRUBuzICBAWAAGFgPA9PJTHiK6dnFekLAoNAlMAAMAAPAADAADMzFQD+ZYV/NxneZALi5gMN9wA4wAAwAA8DA2hjoJzNYjsFyDDAADAADwAAwAAycIAZAZk7QKGszVtSHWRAwAAwAA8DAOWMAZAZkBrMMYAAYAAaAAWBg0xgAmQGANw3gc55poG+YSQMDwAAw0IeB/wfI9RalCkH37AAAAABJRU5ErkJggg==;" vertex="1" parent="6">
                    <mxGeometry x="20" y="50" width="313" height="65.05" as="geometry"/>
                </mxCell>
                <mxCell id="5" value="el_table" style="text;html=1;resizable=0;autosize=1;align=center;verticalAlign=middle;points=[];fillColor=#e51400;strokeColor=#B20000;rounded=0;fontColor=#ffffff;" vertex="1" parent="6">
                    <mxGeometry width="60" height="20" as="geometry"/>
                </mxCell>
                <mxCell id="7" value="gt-toolbar" style="text;html=1;resizable=0;autosize=1;align=center;verticalAlign=middle;points=[];fillColor=#e51400;strokeColor=#B20000;rounded=0;fontColor=#ffffff;" vertex="1" parent="1">
                    <mxGeometry x="650" y="392.58" width="70" height="20" as="geometry"/>
                </mxCell>
                <mxCell id="9" value="Point" style="text;html=1;resizable=0;autosize=1;align=center;verticalAlign=middle;points=[];fillColor=#e51400;strokeColor=#B20000;rounded=0;fontColor=#ffffff;" vertex="1" parent="1">
                    <mxGeometry x="340" y="270" width="40" height="20" as="geometry"/>
                </mxCell>
                <mxCell id="25" style="edgeStyle=orthogonalEdgeStyle;rounded=0;orthogonalLoop=1;jettySize=auto;html=1;exitX=0;exitY=0.25;exitDx=0;exitDy=0;fontSize=13;fontColor=#6666FF;entryX=1;entryY=0.25;entryDx=0;entryDy=0;" edge="1" parent="1" source="13" target="27">
                    <mxGeometry relative="1" as="geometry">
                        <mxPoint x="270" y="340" as="targetPoint"/>
                    </mxGeometry>
                </mxCell>
                <mxCell id="26" style="edgeStyle=orthogonalEdgeStyle;rounded=0;orthogonalLoop=1;jettySize=auto;html=1;exitX=0;exitY=0.5;exitDx=0;exitDy=0;fontSize=13;fontColor=#6666FF;entryX=1;entryY=0.5;entryDx=0;entryDy=0;" edge="1" parent="1" source="13" target="27">
                    <mxGeometry relative="1" as="geometry">
                        <mxPoint x="230" y="380" as="targetPoint"/>
                    </mxGeometry>
                </mxCell>
                <mxCell id="13" value="&lt;ol style=&quot;font-size: 13px;&quot;&gt;&lt;li style=&quot;font-size: 13px;&quot;&gt;Html_Toolabr&lt;/li&gt;&lt;li style=&quot;font-size: 13px;&quot;&gt;Html_Form&lt;/li&gt;&lt;li style=&quot;font-size: 13px;&quot;&gt;Html_Code&lt;/li&gt;&lt;li style=&quot;font-size: 13px;&quot;&gt;Vue_Data&lt;/li&gt;&lt;li style=&quot;font-size: 13px;&quot;&gt;.......&lt;/li&gt;&lt;/ol&gt;" style="text;strokeColor=#3A5431;fillColor=#6d8764;html=1;whiteSpace=wrap;verticalAlign=middle;overflow=hidden;fontColor=#ffffff;spacing=0;fontSize=13;" vertex="1" parent="1">
                    <mxGeometry x="339" y="292.58" width="150" height="140" as="geometry"/>
                </mxCell>
                <mxCell id="28" value="" style="group" vertex="1" connectable="0" parent="1">
                    <mxGeometry x="-40" y="270" width="298.23" height="162.57999999999998" as="geometry"/>
                </mxCell>
                <mxCell id="11" value="tpl_ejsyaml\mvc_gti\Page\Basic_1.cshtml" style="text;whiteSpace=wrap;html=1;fillColor=#6d8764;strokeColor=#3A5431;fontColor=#ffffff;" vertex="1" parent="28">
                    <mxGeometry x="10" y="20" width="250" height="30" as="geometry"/>
                </mxCell>
                <mxCell id="22" value="Main" style="text;html=1;resizable=0;autosize=1;align=center;verticalAlign=middle;points=[];fillColor=#e51400;strokeColor=#B20000;rounded=0;fontColor=#ffffff;" vertex="1" parent="28">
                    <mxGeometry width="40" height="20" as="geometry"/>
                </mxCell>
                <mxCell id="27" value="" style="shape=image;verticalLabelPosition=bottom;labelBackgroundColor=#ffffff;verticalAlign=top;aspect=fixed;imageAspect=0;image=data:image/png,iVBORw0KGgoAAAANSUhEUgAAAZ4AAACeCAYAAAACC2y7AAAgAElEQVR4Ae1dz6tcN5buv+TuDFmYBhscAoEQhmcGQyC9eo+ZhHR6gv0gqybP0O54kaINIQtvvM5rQggh0GRmyHhjmE1DMg0dsFfGi+A/In+BNejHkY6kI12p6tatulXf4lFV9+rH0Tmfzqcj6Um/GYZBxX9/Ut9+/nf1v/9+xp7/SX3750fq37K0aV78jnUZ6+PzJ39TL5/+Wf3B6fHzJ39V334Up6nlx7teXX2gvvrHc/X8+Q/qLwJ2//I/5XfQda+ukR6YacfAb2RlWfL5v8//rujv239tL1QuE/mH4V/Ut0//pl6+dH9P/oOR++Hp5w/f/DW0ldqcfjIi3g5uLPn8868fxLr+8Cv1zwIhbUeOw7Mv9ASbrouBAvFAoesqFPmAHWAAGAAG6hgA8QhTMABNHTTQD/QDDAADm2AAxAPiiaegoA/oAxgABraMARDPlhW8yagAeTGqBAaAgUPEAIgHxIPRHTAADAADs2IAxAPAzQq4Qxy9oU2ISoCBPgyAeEA8IB5gABgABmbFwKTEc+XOz+r08rG6mhnxgXrr8oU6vfxZ3XijjxnXGkl88Yu6fPlKXT79Sb2eySLU/9FP6uHLV+r+F8K7Wv4bt9SPj+6pZw9uqfeHq+rLB/fUs0cfqy9vdJZTq6P33T7K1NIGspm2m/578t0WO8J36v7LV+rhNw+2WMcOMdCib6SB7XeIARCPVv66xDO8qb7XxPPJmwbEn32yB8SzlzL1OOEH6vwpiGetAdcOHQnk7cE40s5EPHuu6EmJ5z312U4dgESGu5apx/4gHjjxHrwg7RLx0kg8J+p8tVLnN+tGLk+11fPtXHETEc/7H36snj3atZOPiWc/ZOqx/x4Rz81ztVpdqLPrPfIj7c77804HfrB/i/3Hicd0vpVa3T7J50Tf+FrdMms3ev2G/vgaD63tSO+sga5++kKdPvxaXUnAYkmsc02oeZ3AOTdaT3Cf3Ws8icxFhb/znnqmp+T8X0JO5r1+5kjDpfvxw6tB52btRq8f0VqSK89N8xXrbpUxSld2/u8+0Wswv6h3o/QtnS3VeamMct2mjamNxXU8u4Zj1opE2+ZrPK9/86tdW0radnJ7pVYNg65p9d+iT6SBzpeLgSrxXDu9MJ3u4vRacIDkcH732JDNW78Lja9FPMV3QjnD8Ht14+ELdfrpuou/NeflnBJfvF474gltL3YCTRgROTjiMBsSXH5GTN+/Ez/zv2nTwKN7yhOSe+Z/k20m+LSO+Fd1Hp2enTvsYrsjGZzOI5L4Tt3nNvDpy7bLZSIy4ySmn/Hfg8rzxe0g0ikNPKgfiIMvL3cDFpA29yPQyVHqpEA819TZXT3SK00zyMRQJJdhUOV3QlkukuKk1ubgqPOPOa/YMWWbCx78oJ4/10fmC3//+Ep9sGFnyaa/HPF4kjHlO4Ii0iqQjNnQwElsQ9mCnmPnbJ6baCMlI9J5+bMvSirZTpBHt7Vl0JClCWVZ2RradP1MXaxWanX3TF2bTMdlnQU7IA10cXgYEIjHruesVufqpNjB7BRaSgxlcqkRT/7OlCNMv7UDsOS8BmUcTTrSzhzTtIa2u934VJv+zqbbDPHk27AjUnHEE5PToDISK9qsv01GVyxKEXWXTn1lW6HLtpDtWUhvbCQRhE0fbY2WZIq2y1vioam4UqSTy0d9ozQg69dxXgfKgE4OHwMC8ehGj0U80xLPMPDybAR0687vNwhBC85rmJ94pC3WGVnUiCeJeETi2UrEQ9EEOXvrrNudNHWesi1kB1NI30o8jnQiIsoGFoh4ZN2TzfAJ/WwXAwXisZXS3Ha+xmOJIiUHs1FA/AfSPKpJDWvy6jUdM83GNyiso4CC8yLiYaN4I4dzVt6pTjbVlkyXuWikjXhsXr9+U4h4DLEROU0Y7Vj7WD0aJ651lOqtsb40ckptH/8u2S6QRZQ+IRW7XjMylTrwslx9yaaCqI7aBptGHUTlIc8Gg8p1/AHy7Bv+qsRjhC10upRk7G+9e00mjdo0nKnHbDJ4rG7o0w/W3lRAACs5r0ENKcm433raxRPPhI4hmi4baGpsfKrNRkpsOk4gHktg+RTdlCAzjvzpT+r8yQb/6e/IIT6NoH9zgSGwlxSBaVs7O3NCNPZkaajuyL6ceHQ59re0Ww+72qhP4XPKfnXsZY0Tj3HC0v/xuE0Bbhu1iX4cefgjc8Tt1nZrdRot+Z1sGxyrQ7uTaO4+fDJHNNAuJ3c0i3Fa1vFsg3iGZIu0OV7HTK0xUnGbC8J2azqGh3V2RzxRGr5ONCFZxp2i7JTjdExWURYqx+k9iTDWsl22nmRlsARF9Wjbp/a1v6XpuEtObPg/HkQmIpbHsI73Y76hkXigyDFFbvS+sMYTlSlEPNF7dBA4SWAAGFgIBkA8+2AoEA8cxj7gEDIAhzNhAMQzk6Kr0QmIBx1+H3AIGYDDmTAA4plJ0VXigQzo8MAAMHBEGADxHJGxQX5YqwQGgIF9wACIB8SDkSYwAAwAA7NiAMQDwM0KuH0YbUEGjPqBgd1iICOet99+W125cgXOCIQEDAADwAAwsBUMgHgArK0ACyPK3Y4ooX/of58xAOIB8YB4gAFgABiYFQMgHgBuVsDt8ygMsiFKAAbmwcABEQ8/Oy6+Mnv0gNJFkA+doszPIJsHJJt1xqXKnejWHzaanHzdhR06ry4+O3Aj/ZpDUQsykczp/VNaZvNuGjnEe5q69JLomg5/Tc7z83oyshfabOolPeu+EqfrOyk9lQu/vQ02su+gDoZ4+OVx5qRsukjOHFQaE5FWnk5DF9nxvM2KLXVc19mjA0elZ5sYLj2Buacsdhp3OESVyOyVik+QnrijFeVOycnJIznMnrZOmdbZMHVkzXgxspBDnMbhj96+SjIX9DgZYZh6GtrU3A8IDzFpcF3bg2Dl96Fdrhxqf42kp8QKyhqdRTkY4jFk465TCEQiXKttQGGfE/HwvBzc1e+lziZ1LunZJuAsOvBeorCOMCLJTeQay1uUO3EQuhyns+gE6bHyj+q9tV1VP06HxcHEZI7Y2q8qC7PpON7GicdfiUGk4m0fyxJIqEFfvozefoT0VV8p6HXBxBNf1RDIxkYz5k6f9JoGrwBNPCEKAvHM1HF6iKd0aZ+34Uwy72l9xqHye4hEOcec7dj7dh2LF/ClMnUMwJraVygvkE0gIbpX6nUu0/UzdbFaqfOb7e3sdbBIL+t2mcQjXk5nb0U9NfcD6cvo+HXa1Hi+DmTvBbLpw3eKgkYBY0AvTC+wzlC+Y4bPPdvOf/8L+0kX0pnO87Jw+VrRgVM7Wz+p7lL6IJOdlhPa6+fjw3RdcURblNuNcJPRa3AgTD5TRqgrn/oKbYr1L0/L1OxMNoimJCVnn8qUpUn1KMji8USj/dp0Y2hjTf6Wd6JDJuc8kUyxHbjt9HdBF1R/w6exUapv1weN3fQ73w6GI1d2+ZblPG2LPpGmTW+LI55WoFSjmGjdRyKoBuWVwOxAHzlf6ZnvVOSUrFPXHenh01+VnrawHVbomEUH3iC3r1enrTgwJzOfPiEHEtrmZOeE4Zwwz+c7Y1FugXhcOaEuN/3G6yLSixwP6fMVu6pbKD/SQ5veJCdndcIJmYhDsJu/hFB45/RNAw+jM0kHWu6iHtva4e2hy6phs0emlgi1Vtca9gg6EvTpy7P2EPFIaWgge/dMXaNn+Bxdp4lw1KmvBRHPNXV2d6VWqwt1dn2kgxWn2Fw+Qzx0RfcmxJOO3sLvzGFGVy9z+WPnbUfZtiPtkngkJ5vOq5fkk/PWHCY566A/7YCrzsIBPZch1id1jqJMHR0mL8PWlclZcbC5vA4LYh65fFNGRLYcT/3fTbsiQu+XyejZtIGTcCKL2MYkTYc9Qp3la+vbdWWn7lerc3XSKwPSd5PUQoinBxSWSPTV2mbdh1/NTQDhxBRFPx2doNTJpM4lPSNZXNRBzos7t6KTmmzEax1bRJJGrvIokXfkosMy8gmj0KLcjngi5+cIJHGwpk595XX0x+uSnTUR0Caf3DbB6UmOdkR/0vSSiBG5LZkcHksd+OV5SvbqkMnqtdzuoK8ySaxlG1FGpwf2juMmxzvpjQa3WPdZyxYcUyPfF0I8GhgEinrEY6bY9FZqTihENOYzrOek6zuntAV7RGmhEwlOh4HdG0965uuInQt3KsdNPHmEZJ1HrPNcR7E+vQ28vsnJ9H9y21Qx4KYAaTDBZcjldXKIGJHbwsmfl73+9wJhdMjk6y6RmNa/WF6/HXxdvswYE/Y9G8wwmcq66xncbijzBFiMdLDA8hZEPNbY1TUeiWy0UfjzYbCRkNt6PRAp9RrPdCIB8FLnkp75+mLnwp1b0UkVI4feDmHrlkaAXI4ActaZK+sVct6cSErl+ufMYaTTfJQm11GsT0o3xWferkJdFXvn8jqbiXkK5U9m/4AX0SH3yJTgWcLUVognwkhoj10HY1PWFDlL6d3uthXWeLqnzNbtV4sjHtNQWgy8fcIUZXes6Sk2k4aTTUIufOMB34bdpUTTKRuJx02nyf9PETsX7tyKTmoyx2PrFp2EqSNeZ7HysDY7xxS1y+Url8nye2cVE5q1g5WNl811o9NYefS027pTba6O4vobc2SFxXMj00veJtcWcnS+jbasok27nHyMmS7cJvL4vFL90rNkatjnZ+WmdgppcpuGd7GuW5/Lddl6PAYZ2Rj9M9tUB7KsTa3yIF2bHZdJPAYQ8f/x+Ck2BhbzzK3x8G3S+jkR1DzEE6YZwtoEOcvYifCOFDsp12mjtQ231hGtjbQZ3naQpIMy3Zn3RCy+TpKZ15HKxZ2wTpe+Z+szXm7nrH09Nk0+VZWUpR0Icyq8TXleLrP7ztrnnVSqA/ab24Y7mECABXuweoL9kzZ2OnkjS0S4QvuY7Fze0ndTprdJwGysG2uDqn5NW1Ic5Dq3upAw1dgWUWfSIIbji8mF/+NhA/dGnXdiqoS1BRPPvIoqKRDPj8cOmWOeqBOuh6EGAuiVz5A4c8y9+X16yflPjZM56phaZpRHWAfx+M4CUBAo8OlG+6Oj/x1jxk1rVqOPLnxbZz5JeVkkOq2uthHxAffT2qimTxBPV8eczzA1o4nvKtM5YXpnitHsHutgYlumU2jxlNOe6GHLDl7E2sR67q7DYH2DKbpdy4/6D+d06m7wwvg7m9+FrfaEtNAH0Ad2hAFEPDtSPJwvnC8wAAwcKwZAPCAejPqAAWAAGJgVAyAeAG5WwB3rCA/tRnQDDAQMgHhAPCAeYAAYAAZmxQCIB4CbFXAY9YVRH3QBXRwrBkA8IB4QDzAADAADs2IAxAPAzQq4Yx3hod2IboCBgIGDJx57Jw9d+hYark87fsuc4/azuvEGf47v2+kg4bys3f8jZpDF/nPtgv6x9sYt9eOje+rZg1vq/eGq+vLBPfXs0cfqyxt7jtt33lPPtNz098mb6w14XPu/f2ekvUvV05EMhEE8l/MQj/8veHYy7nYc/EiHbAS2PZIkcch0OsJabQjOfvfEw3Q02flkrMxGHa9n/zfV99p5O8f92ScLIR6vE0eW2yaeYel6mgtPu6nniIlnToVbp3v/m5/Uw+gI/Tll6KvLEo90LcIrdbkW8fTVv55TXqOOgyCe99Rn3rGvoYNZ8+6SeJakp32342byLZh44msRSo6qPNW2meJK9YnPTaSgowdLQJMcwrhVZ8GI0pOMfvaLelc7av9sRh1uq70LJ573P/xYPXu0JIe6G+IR9YRrEdab7pygLy6TeMSL4JwTNBfApddb8zUeWtuhNPydLUO620cTiiWx/qk5M83mnDX/HkjKHnGvp6D8lJy5myY/CJEiETr4U5q2istYJ0JxxPOF/nTTbdpB69OajaPmciV35GSXqtmySN5LMeKzaTQhx7LzejpJzsgZ7v4pkv0I8cTyFHSZ1KXbmtsl1xO/5C5gobOdghMw0296KitaV5HWgdx0FK27PLqnorUTs06i89FaklujkabJorrCVGDerimIp1EmQTepPLgIbnO8pTpt+b044qkCxdw0+kLxS99qEU/xnVDOMNgbTk/pyuwGUFsDBKdqfvvohxucOSUfTTiH7Y/mT38XLur64hcVO1lXti+H11v6busiItTlacIzzjQiHp0uJgfrqJO1IdJV0cm7tmmy9XKuI7dtD5EFd/6vf/OLOv9IaG9RJntV96gu3boXryvveILtSCdb+LTrPpokQiRkn4Xfg9mYwH8PykYFjKBogZ4TkiMYTlB5NFEjl9o7wT6pfiSZ3DMuU26DStk0kMXV17NFQAsinmvq7O5KrVYX6uy6BCKZGIrk4iOYPOIRScZFUpzUmsCdEY11qKMOLb1qOXL4of0mAvLOOjznspk0ntDkNDw93RpqnKmW/+kv6j4RTEEOn7/miItOXnbM/XIHMo71W2lzUSY5TyZTU37J5kn5D35Qz58/l//+8ZX6IHXAld85yQxqaHHOaZr0t6nTRkk/fnjVOSn7O3P6hqBiYrMYmYZ40vp8lFfRi8eomMZO3a9W5+pEfJ/YC2k2IqmFEE8LKOwUWkoM6xEPTasFUjLlPPxaXekEnB19x1FB5rwa7rGnUXyYsgrTSPGaC4se+FXSEfFIaXiUYh0ljeKNvERuqaM1v5ksrk7KG3X2NK/X5YTEU6yj4Diq6SU9pdNtcRqx3UMyhUq69O0vyLbme+OEzXZrXm5KGEMyFRe2Onun3kI8Lo3fJs2m7eRt3tshHhN1ZW3m7W/5ToPblTq/2ZIeaaL+3YHXhRCPNjCBohTxTEs89H8+lshsNHXrzu87WT52SjFp5I6+NkqXCCw3OtU3RnRjHSYmnqgeHsE50onk3nXEUyUSod3F9P26NATtiDfSCe+QTmcGC9FgQJCN5+v4XiMeTypuyixELkJU1EE8vtxRObdDPHKbe3TaMrjtKQ9pI7+R4GJBxGMNWV7jscSTkoPZKHAZIheujFo0pNOZvHpNx0yzyWXw8rLvRSecTr2kvwXQFh0kTyuXk0dYPI/wnZNLApiBvRPJsNhmu2ZS21wQ1nesTN1ya1lr9adt0b+Lel1fl01yp/VOPdWWjv4NiYT1m3xdZk3icf8vExGYpGf/bBvEs2GZbnfbCms8nQNrwXd4O9ffLY54jHOnxcDbJ5GiUpKxv/XuNZk0xohnMJsMHqsbd35W/ZsKyKnF0YclJzea9iNe2cnFRCaPwMU0bCrHj8J9XXVAmPIYucTlk2NnO934LjXn9OVdXaQPHumRLK5tTG5db5MDF4Bu2xzX07+5IJepTZd5vkyHfupNwgbpZP3PfPTvdq/x3Wgm4glERGtAesrMRy8tEc9AmxJYPsEmQQcbkoQgU7Ypolp/rNfyQDZOF+TH8yl0sUziMcCS/o/HbTAwR+G8UCb6ceRxlcAobre2W6vTaMlvMljzdIOa47TRAjnHFuLRgCfyiddUonUF5vzNdM6T7+wW5UmJJ2wX9s7YTDHp9ti2BJns73ia0cnviUZ21jX9jYE/XROLp75aZCKSZboWdJnWQzqP5EttYnS1HdLR9RriidZa7ikpIonTaRJKNgoITn4oRDjW+Yd1IrPmw4hOfG9kZORHfbT66Ug0ap+0iaGBIPB/PNHAPcJs1QYNuh3Jv2Di2bzxcyoadcFec2Egj3ig+7l0j3rasAbiGWFmAKkNSNDT/ugJxLM/tkC/kG0B4gHx7CzcRqeUO+WmegHxbEevm9oF+YNdQDwgHhAPMAAMAAOzYgDEA8DNCjiM+sKoD7qALo4VAyAeEA+IBxgABoCBWTEA4gHgZgXcsY7w0G5EN8BAwMAiiOePf/yj+u1vfwsHCZIEBoABYOAAMADiOQAjYiQVRlLQBXQBDOw/BkA8IB6MIIEBYAAYmBUDIB4AblbAYTS6/6NR2Ag22jYGQDxbJR5+dlx8ZfboAaVblWuqjpWeHUdnz01V/kTluLPSwvlxE5Wb2YjOgNtED0Gnk8lr2l+SieqTzo5Lz91bX2/mTLue8wIz3VLd08nknSudpefPDqS63Kc+SbwiOz+vLzoTcDbcJfIWdbc/6UA8WzQSvzzOnJRNF8mZg0pjItKdQKehi+x4Xt9BxmQtORipA0jPxsqvvU+P+a+lLb4jJxgO5pzE+U7d1qL8+0g8VqbIIUbyk84l4nEX2FWcbjM23WWH4/Z08pRIgE72bpGpFZMOH+m1HKFtTiapTpPXkXpUn81T1vv+kEBo53wygXiiTjit4g3Z6Pt86JptQzzyFd10EjYRD8/bDAzeCXi7JMcrPeN5er9HnW4NPTp50s7/7pPSSL2jjqnb2qubnaUfd+LhxHOZePj9S804LLTXnDZeIRRbfoPMxp4NuGjFZAF7cXsLBG7qcLpjctkoqKDTgn7i+jrwvcDyQDyTGi2+qoFHLZ5I0msafP2akEIU5NP79w1AZMCPQOw6VjTalJ711JWmbe3kaT7zuzKiFNM36ILnm7qtvOw9/t7q/OrXTzQQQasOmjDSUl9Lmtr9Tyl+CqSStkuSn/c5T0K2vKi/DYM6ub1SuGzO6h7Ek4Jr3d/i5XT2VtRTcz+QvoxOup6brwPZe4Fs+vCdoqCITCQ5eSfg75nj5fPR+R05NEKjjmM/dTrdiejuHXH6QOqUXIbadybfaBtNPWEqTp57d47JXUNN7UwdAbWn9H5UFpr2Seq5fEl65A4u6NLWl47YU5nT97osm0brP7ajVF9I29KOahrvUHl76HuoZyOZHAbIFulnajt7c6zU7oDTtAzzW5ouq2EzeudslERtHEe+nyRprH5xvTbhDMQTAYs6U99n6y2G1SgmWveRCKpBpgbiIcPXr4gmJ2mdn+5YD5/+qoLDEzr8JsTTmNc6Nu6QnSOIHL2TnXf8jNgEB5KladC3gB0rY6IfVzYnbHLSmUPVZRb1Qe19pcKUpNBeXcZE7bF4sXVw+T2O+OWEXucFmTxRJ/qJ9CjYJnpPdqnJ5NIU9Uhl9H8au9XIy9RZa981dXZ3pVarlTq/2V9/0Puy84J4RFC3GpVAdKHOro/kKU6xuXyGeOiK7k2Ih0UDyUg8cnJVxxQ7Djuis51JdKxah5t08qa8BUeTtEOUL0lTGi2bdnrnOWLPAm6k+k25mbOqONiiPuQ8YvmjDrCvfWWH2yGT0Zm1Y4TFSJdyeZLDLcvk2lbUY1/bo7qrZY61LdTbOliN6o70FMpaYhoQz9rG7AmbLZHoq7XtNmrhqm1OTFH00wEw42B5RODypo5Xt1l65nURO3nu2CTHaoBf7ZAjbWjJW2obm37ScojkkbTVtqFA0BlBjMjudWbT5fqxjlSKFoqOs6gP2Slz+5ATyuXoaweV4z9H9B8iMFuPJBOVJdrI61FuI+WNPosyubYW9biBLipl+jY7vI1O7dH0/N0zdc23fwPZFlQGiGcjY7VFPGaKTe9o44RCRGM+w3pOur5zSluwW+QsdUTXEaJRpvTM1zEz8VRlcR2x1La1iac2HbJ+588d/m6IpxTVRY7b27utvTJhyEThnbBUR9GWWg65vJLcskyuPRWSKJU3+tyUKWDH18XtXY6AEPEkwHj77bfVlStX9uq/2ff9kNAqiCSy0Trnz2m7tdt6PRApJbYZ7RSlDi05dumZr29m4iFnU402Ypm8LpJ2iA7POAW7QcLk806izeH6urx+yvly4nFRWNa2ioMtyifnEduc6KWnDcW0Rq7U6XbI5PXHnXOqS7m8Ppm2RzxylMrbw8mGPw/tNLvbsMYTFKKNC+KJ9VEEvO9ELj2FzbdPGGnbHWt6is2Uw8kmIRe+8YBvw26uX8tjnE3jVJv7h750isTWFzt57tgkx2ryFJ1loz5Nfr5obvPx/+Mxcrzk7XNOijt1V46P7qhctzPPts/lizYllOW09eaySbYR9eNk4NNtNh1vC6vfpJfeObmTdShunyCTnDa8Z/WlWC7+jnER6bJJplCnqCdXr9V3SnAhb9wGSSaX1pEv13uct1Rm6bmsU9MWj0GbxtbJSUiX2TM9X5LhMJ5jqq3YydYxcPx/PH6KjdVhnpnt1eGUAt0Z9HMiqHmIh4iKr3VQZ487M3dsscOw6cRtq4kjauvweXmeQJwObf1MZqGeKI1xCKkD0LZ1TqS2AcPUydIJdaXtivXDMOScYNAV6ZrS5G33aX29suPj9uHyWFkkAqM6+z9Nmd7J6vx9MgX5JJuQPEznzj4pDkI5I6crsIHH6JoL66e8fP9dGhAUnzmMetvh/3i8HodBgXjGwIb3LIIjx4BP3on499wx71JXMilwebu/TziFVyLMXcpUrtsS5XTR0y5xsfu6QTwgFhDL2hj4Tt2PRv976Jwo0mIj77JzbXNIhjCmKM/INk1ENplMIhYcgUe2btPVpro+1PwgHhFoANUUgLdTPWxaLJnW2njqYx9sl0zl7OWIeEIHPwUuFleGtjFIZ9IBKohnH5wXZJgU1ItzbLA/7H9kGADxHJnB4ZQRzQIDwMCuMQDiAfFgtAkMAAPAwKwYAPEAcLMCbtcjLdSP0T4wsHsMZMTzX//9n0r/vfbaa/iDDoABYAAYAAYmxwCIB6CaHFQYtGDQBgwAAzUMFIkH4ejuw1HYADYABoCBQ8QAiAdrPFjjAQaAAWBgVgwcPPGYk6PH7rswh3fGZ6fZUUa4lrr5+mkAeFYAH+JoEG1ClHPoGDhw4okP7SwaE8QDssCAARgABmbDwGETj7mq4FydjAGqSDwYeRXJekyneD9bJ4aN0E+XhoEFE89YNGNvB704vTbuALZJPNfP1MWRX/q0tE4BeeHIgYHtYmCZxCNeupYoyjj8C3V2PXluRuJh7YZfNR3WcdL3P6sbbyTlmIvchOeOxOhuHQ3g6g2liAzGBwbQEXQEDBwUBhZHPK1O3FwvK24qeKDe0hex0TXTGtC1iKdEMINQDl1hfflYXU07CpGlKFNCamle/D6oTofRNPB+7BhYEIU7OzoAAAceSURBVPHYqbPVqhTFcDCXp+HM7Z4pMaxFPIPKy3KREie1iDSsXKtVw7pTlI+3Dd+PvdOi/egDS8fAQoinz2HbqEh27ubq6ZQY1iSeLFIy5QjTbxGJEIGu1PlNdKCldyDIDwwDA/0YWAjx6IaRwx6LeGy60qaCSYlnGBQvz0RAD79WVyKi4UbpI1AAmusO34EHYOBQMLAg4rGgG13jqW4qcESRkoNZx5H+gXRQQ3GNx3UC816v6dhptrBBIekkbnfbCms8WK8pDkwSzCAdsHKgGFgc8RjGp4X62ycZMM2mAuG5HymkJON+691tImmMEY/bZPDWna/VrXTtyIFmlCwPFFxe52hfhlPoBiR7zBhYJvEYRyZtIJCe5QC3mwJeKLOV2kQ/dodaIB63Y03vfkv/0vUhv5PtheJbqD2o8H88cLogXmAAGIgwsGDiyQmltqnAEwEAEAEAeslxBJ1AJ8DAdjFwQMRT31QAIG0XSNAv9AsMAAOtGDgg4oHRW42OdMAKMAAM7BIDIB5MvWHqDRgABoCBWTFQJJ7ataV4h2ttgQFgABgABtbFAIjnNYBnXfAgH7ADDAAD62AgI55dzvuhbsw7AwPAADBw+BgA8WBud9a5XTiVw3cqsDFsPIYBEA+IB8QDDAADwMCsGADxAHCzAm5sJIT3GC0DA4ePgUmJx5wcMHYIZvEKgnDrZzi65vANgE4GGwMDwMCxYWBC4mk7Jy27w8ZHHCCeYwMf2guHCwwcJwamIx5zYrR8+VoErmLEc5wGiHTjSRi6gF6AAWDgcDHQSDxj0UzHOWnbJB6cBI31GpA3MAAM7D0GxomncveNH5FUL18LU2j8ioGwjpO+F66OLt2J40iMX0eAu28Od5Tk8QbHsveOBbZCP6xhoEo8rU7cXL4mbipw99rwO2xqEU+JYNxla6e8HH8Pjr79MzEykaUoU5I2zYvfcGrAADAADGwVAwXisVNnq9WFOrs+5qjL03D2wrWEGNYinkHlZblIKSGjwLJWrtWqYd0JINsqyIJNxrCE99AVMHAMGBCIp89h1y5fu/rpC5VGKeVdbYMaihHPoLJ8hsCEabmIRIhAV+r8JgB9DIBGG4FzYGD/MSAQjxaaHPZYxGPTXZxeE0fMkxLPMChenomAzLXVJSX3ESjAWtIjngMbwAAwMC0GCsRjKxld46luKnBEkZKDiWpeqLC5gDWoFvHoSMa811N3dppNLEOnc7vbVljjEQcE6EQMc1GEjOfABjAwBwaqxGMEoIX62yeZEzObCoTnXvCUZNxvvbtNJI0x4nGbDN6687W6dZmsHTkHMkqWcDSZHb29oBvoBhgABmbAwDjxGCGkDQTSs3y0YDcFvFBmK7WJfuxOt0A8bufbpUvDP4WNA1Qe30LtHSf+jwedZoZO4/GGuoA3YGAtDDQST04otU0F6Ji5vqAT6AQYAAaAAYuBNYmnvqkAykUHAwaAAWAAGChhYE3igUJLCsVzYAMYAAaAgToGQDyYo11rjhYdq96xoB/oBxgoYwDEA+IB8QADwAAwMCsGQDwA3KyAwyiwPAqEbqCbY8EAiAfEA+IBBoABYGBWDIB4ALhZAXcsIzq0E9ELMFDGAIgHxAPiAQaAAWBgVgyAeAC4WQGHUWB5FAjdQDfHggEQD4gHxAMMAAPAwKwYWBzx0Flt2T0/AM6swDmWkRnaiSgEGJgeA0dKPGO3l06vaIAXOgUGgAFgwGJgccQzjeFAPNPoEY4EegQGgIF+DDQST9sVCMsxwDjxmLuGcJEcpu8whQsMAAOTY2CceCoXwdkbQeN7dMI9O4wF2QVw+l6e+C4dSwLmWZTuZ3XjjVCGX9tx9/XEZdh0/mrsUjlv6AvkYnnNPUHuWSw7rs5ezkAi4AQyQxfAwP5joEo81ds8nROPnXXeYCIMnu7KnceMVFz0YZx/uFXUkEh6bbYZediL44rEI5WT3VY6HvFY8NrrH1arlTq/mbcNAIdOgAFgABjox0CBeMjhXqiz64VCR6+pHtTgyEkiiWAsRwIJyVjCCkQU0o8RT5JHJMhW4rFtrxIwwvDJw/Bg6wL2oHPoHBhYNAYE4mmdYuKRygvFIxrvOFrIaegjgWEYIZ6EwOT0vXUOaqApR6z7LBrwHptwXLAjMLAzDAjEo0eZDREPM5qZFnPrJFF0s0fEExNjH/Eg4kHkAcICBoCB6TBQIB5bQa/DzdZlxGmuVPg+EpAjGFtmVr8mRyNDvFFh6IiyzO42rPHsbGSEzp72F/wGJpaPgSrxGAPTFNPtkxHnIxOIjYZixy9uLvj0wUj5pOyeqTabVjrlwMqVrAexKG4YWqccSS58wiEAA8AAMNCCgXHiMc44/z8e2q3GtyNLDl4LkaaNpuMaow9LFNJW6EAeUpq4Lg4KR5RuilC3g0/H4f94uK7wvaUzIQ1wAgy0YeD/Ac0uYw20yFMjAAAAAElFTkSuQmCC;" vertex="1" parent="28">
                    <mxGeometry x="10" y="52.579999999999984" width="288.23" height="110" as="geometry"/>
                </mxCell>
                <mxCell id="29" style="edgeStyle=orthogonalEdgeStyle;rounded=0;orthogonalLoop=1;jettySize=auto;html=1;exitX=0;exitY=0.25;exitDx=0;exitDy=0;entryX=1;entryY=0.5;entryDx=0;entryDy=0;fontSize=13;fontColor=#6666FF;" edge="1" parent="1" source="4" target="13">
                    <mxGeometry relative="1" as="geometry">
                        <Array as="points">
                            <mxPoint x="540" y="326"/>
                            <mxPoint x="540" y="363"/>
                        </Array>
                    </mxGeometry>
                </mxCell>
                <mxCell id="30" style="edgeStyle=orthogonalEdgeStyle;rounded=0;orthogonalLoop=1;jettySize=auto;html=1;exitX=0;exitY=0.5;exitDx=0;exitDy=0;fontSize=13;fontColor=#6666FF;" edge="1" parent="1" source="4" target="13">
                    <mxGeometry relative="1" as="geometry">
                        <Array as="points">
                            <mxPoint x="560" y="343"/>
                            <mxPoint x="560" y="388"/>
                        </Array>
                    </mxGeometry>
                </mxCell>
                <mxCell id="31" style="edgeStyle=orthogonalEdgeStyle;rounded=0;orthogonalLoop=1;jettySize=auto;html=1;exitX=0;exitY=0.75;exitDx=0;exitDy=0;fontSize=13;fontColor=#6666FF;" edge="1" parent="1" source="4" target="13">
                    <mxGeometry relative="1" as="geometry">
                        <Array as="points">
                            <mxPoint x="580" y="359"/>
                            <mxPoint x="580" y="420"/>
                        </Array>
                    </mxGeometry>
                </mxCell>
            </root>
        </mxGraphModel>
    </diagram>
</mxfile>